<svg width="60" height="63" viewBox="0 0 60 63" fill="none" xmlns="http://www.w3.org/2000/svg">
<path d="M15.6377 12.955C19.2151 12.955 22.1151 10.0549 22.1151 6.47749C22.1151 2.90007 19.2151 0 15.6377 0C12.0602 0 9.16016 2.90007 9.16016 6.47749C9.16016 10.0549 12.0602 12.955 15.6377 12.955Z" fill="#393838"/>
<path d="M18.8165 13.6597L17.2764 14.3055C16.9653 13.7634 16.3899 13.3955 15.7167 13.3955C15.0455 13.3955 14.4741 13.7556 14.1512 14.2918L12.6169 13.6343C12.3899 13.5423 12.2099 13.5579 12.0063 13.6949C11.8028 13.8319 11.7559 14.057 11.7559 14.2996V16.2155C11.7559 16.4503 11.7852 16.6656 11.9711 16.8006C12.1609 16.9356 12.3058 16.9787 12.5289 16.9161C13.1336 16.7282 13.8791 16.5012 14.3116 16.3701C14.6443 16.7712 15.1472 17.0296 15.7167 17.0296C16.2549 17.0296 16.7519 16.7889 17.0846 16.4072C17.5171 16.5403 18.2881 16.7673 18.9026 16.9532C19.1218 17.0159 19.3645 16.9767 19.5582 16.8358C19.7402 16.6988 19.8655 16.4836 19.8655 16.2546V14.329C19.8655 14.0824 19.7245 13.8573 19.5171 13.7204C19.3175 13.5873 19.0377 13.5638 18.8165 13.6597Z" fill="#393838"/>
<path d="M60 7.63103V5.54492L30.7241 5.58602V7.62907L32.8258 7.64668H32.8395L32.7867 19.0713V19.0753C32.7867 19.1359 32.6321 19.2025 32.546 19.2788L27.407 23.8522L20.9941 15.9539L15.6341 22.9363L10.2074 15.4353C7.63014 17.2064 4.09393 21.4236 3.10763 30.8091C3.10763 30.8091 3.10568 30.8443 3.10372 30.8541C3.08415 31.0439 3.06458 31.2318 3.04892 31.4255C3.04697 31.4549 3.04305 31.4823 3.04305 31.5097C3.0411 31.5371 3.03718 31.5625 3.03523 31.5938L0 32.8052L3.15069 40.6839L4.53033 40.134C3.53033 39.6154 2.84736 38.5978 2.83953 37.4549C2.83953 37.1496 2.83953 36.8522 2.84344 36.5527C2.92368 37.9441 4.06654 39.1242 5.46575 39.1242H5.46771C6.92368 39.1242 8.28571 37.86 8.28571 36.4021C8.28376 35.087 8.27984 33.8561 8.3229 32.725C8.39335 30.9715 8.45988 29.8032 8.90215 28.4725C9.0274 28.1007 9.06262 27.8619 9.23483 27.5195L13.407 26.0381L16.9648 34.9402L15.8493 35.3884L12.773 27.7015L10.0391 28.7935C9.37965 31.1418 9.36008 34.0126 9.37378 37.4451C9.37378 37.723 9.91389 38.5919 10.0509 38.8443V60.1027C10.0509 61.5547 11.2544 62.68 12.6986 62.68C14.1507 62.68 15.3483 61.6604 15.3483 60.0185H16.045C16.045 61.6623 17.3894 62.68 18.8415 62.68C20.2896 62.68 21.638 61.5625 21.638 60.1124L21.6399 38.8463C22.2329 37.8717 22.2329 36.7289 22.2348 35.5077V25.7543L25.09 29.2964C25.546 29.8502 26.2231 30.1966 26.9354 30.2494C27.002 30.2592 27.0568 30.2631 27.1252 30.2631C27.7652 30.2631 28.3816 30.0459 28.8611 29.6134L31.1722 27.5801L32.8356 27.5625L32.8337 43.8267H30.7476V45.9109H32.8337V61.903L57.8826 61.907L57.8845 45.9148H59.9706V43.8287H57.8845L57.8865 27.5586L59.9706 27.5547L60 25.4666L57.9374 25.4627L57.9159 7.6506H57.9002L60 7.63103ZM49.5538 52.5978H41.1683V48.3316H49.5538V52.5978ZM41.1703 35.4138V31.2905H49.5558V35.4138H41.1703ZM49.5538 16.4432H41.1683V12.1829H49.5538V16.4432Z" fill="#393838"/>
</svg>
