<svg width="94" height="98" viewBox="0 0 94 98" fill="none" xmlns="http://www.w3.org/2000/svg">
<path d="M52.8751 81.6667C56.1197 81.6667 58.7501 78.9244 58.7501 75.5417C58.7501 69.9038 63.134 65.3333 68.5417 65.3333C71.7864 65.3333 74.4167 62.5911 74.4167 59.2083V46.9583C74.4167 45.8308 75.2935 44.9167 76.3751 44.9167C77.4566 44.9167 78.3334 45.8308 78.3334 46.9583V59.2083C78.3334 73.8669 66.9353 85.75 52.8751 85.75H25.4584C20.0506 85.75 15.6667 81.1796 15.6667 75.5417V22.4583C15.6667 16.8204 20.0506 12.25 25.4584 12.25H48.9584C50.04 12.25 50.9167 13.1641 50.9167 14.2917C50.9167 15.4192 50.04 16.3333 48.9584 16.3333H25.4584C22.2137 16.3333 19.5834 19.0756 19.5834 22.4583V75.5417C19.5834 78.9244 22.2137 81.6667 25.4584 81.6667H52.8751ZM61.8495 79.6309C66.5339 77.3898 70.3144 73.4484 72.464 68.5647C71.2632 69.1126 69.9365 69.4167 68.5417 69.4167C65.2971 69.4167 62.6667 72.1589 62.6667 75.5417C62.6667 76.9958 62.3751 78.3789 61.8495 79.6309ZM70.5001 24.5H80.2917C81.3733 24.5 82.2501 25.4141 82.2501 26.5417C82.2501 27.6692 81.3733 28.5833 80.2917 28.5833H70.5001V38.7917C70.5001 39.9192 69.6233 40.8333 68.5417 40.8333C67.4602 40.8333 66.5834 39.9192 66.5834 38.7917V28.5833H56.7917C55.7102 28.5833 54.8334 27.6692 54.8334 26.5417C54.8334 25.4141 55.7102 24.5 56.7917 24.5H66.5834V14.2917C66.5834 13.1641 67.4602 12.25 68.5417 12.25C69.6233 12.25 70.5001 13.1641 70.5001 14.2917V24.5ZM33.2917 36.75C32.2102 36.75 31.3334 35.8359 31.3334 34.7083C31.3334 33.5808 32.2102 32.6667 33.2917 32.6667H48.9584C50.04 32.6667 50.9167 33.5808 50.9167 34.7083C50.9167 35.8359 50.04 36.75 48.9584 36.75H33.2917ZM33.2917 49C32.2102 49 31.3334 48.0859 31.3334 46.9583C31.3334 45.8308 32.2102 44.9167 33.2917 44.9167H60.7084C61.79 44.9167 62.6667 45.8308 62.6667 46.9583C62.6667 48.0859 61.79 49 60.7084 49H33.2917ZM33.2917 61.25C32.2102 61.25 31.3334 60.3359 31.3334 59.2083C31.3334 58.0808 32.2102 57.1667 33.2917 57.1667H52.8751C53.9566 57.1667 54.8334 58.0808 54.8334 59.2083C54.8334 60.3359 53.9566 61.25 52.8751 61.25H33.2917Z" fill="#262626"/>
</svg>
