<svg width="479" height="181" viewBox="0 0 479 181" fill="none" xmlns="http://www.w3.org/2000/svg">
<path d="M5.312 165.203V123.347H12.928L25.984 146.899L30.272 155.795H30.528C30.3573 153.662 30.144 151.336 29.888 148.819C29.6747 146.302 29.568 143.87 29.568 141.523V123.347H36.672V165.203H29.056L16 141.651L11.712 132.755H11.456C11.6267 134.974 11.8187 137.299 12.032 139.731C12.288 142.163 12.416 144.552 12.416 146.899V165.203H5.312ZM59.536 165.971C55.6107 165.971 52.1333 164.542 49.104 161.683C46.1173 158.782 44.624 154.728 44.624 149.523C44.624 144.275 46.1173 140.222 49.104 137.363C52.1333 134.462 55.6107 133.011 59.536 133.011C63.4613 133.011 66.9387 134.462 69.968 137.363C72.9973 140.222 74.512 144.275 74.512 149.523C74.512 154.728 72.9973 158.782 69.968 161.683C66.9387 164.542 63.4613 165.971 59.536 165.971ZM59.536 159.955C61.84 159.955 63.6533 158.995 64.976 157.075C66.2987 155.155 66.96 152.638 66.96 149.523C66.96 146.366 66.2987 143.827 64.976 141.907C63.6533 139.987 61.84 139.027 59.536 139.027C57.232 139.027 55.4187 139.987 54.096 141.907C52.816 143.827 52.176 146.366 52.176 149.523C52.176 152.638 52.816 155.155 54.096 157.075C55.4187 158.995 57.232 159.955 59.536 159.955ZM109.394 139.603H103.25V165.203H95.8895V139.603H91.6655V134.099L95.8895 133.779V130.515C95.8895 127.272 96.7002 124.584 98.3215 122.451C99.9428 120.318 102.61 119.251 106.322 119.251C107.431 119.251 108.498 119.358 109.522 119.571C110.546 119.784 111.399 120.04 112.082 120.339L110.674 125.843C109.522 125.331 108.37 125.075 107.218 125.075C104.572 125.075 103.25 126.846 103.25 130.387V133.779H109.394V139.603ZM118.634 128.275C117.311 128.275 116.223 127.891 115.37 127.123C114.517 126.312 114.09 125.31 114.09 124.115C114.09 122.878 114.517 121.875 115.37 121.107C116.223 120.296 117.311 119.891 118.634 119.891C119.957 119.891 121.045 120.296 121.898 121.107C122.751 121.875 123.178 122.878 123.178 124.115C123.178 125.31 122.751 126.312 121.898 127.123C121.045 127.891 119.957 128.275 118.634 128.275ZM114.922 165.203V133.779H122.282V165.203H114.922ZM138.84 165.971C136.237 165.971 134.381 165.182 133.272 163.603C132.205 162.024 131.672 159.87 131.672 157.139V120.019H139.032V157.523C139.032 158.419 139.203 159.059 139.544 159.443C139.885 159.784 140.248 159.955 140.632 159.955C141.016 159.955 141.4 159.912 141.784 159.827L142.744 165.331C141.763 165.758 140.461 165.971 138.84 165.971ZM162.487 165.971C158.135 165.971 154.466 164.52 151.479 161.619C148.492 158.718 146.999 154.686 146.999 149.523C146.999 146.11 147.682 143.166 149.047 140.691C150.455 138.216 152.268 136.318 154.487 134.995C156.706 133.672 159.031 133.011 161.463 133.011C165.73 133.011 168.951 134.398 171.127 137.171C173.346 139.944 174.455 143.528 174.455 147.923C174.455 149.459 174.348 150.654 174.135 151.507H154.167C154.466 154.28 155.447 156.435 157.111 157.971C158.818 159.507 160.93 160.275 163.447 160.275C164.812 160.275 166.071 160.083 167.223 159.699C168.418 159.272 169.591 158.696 170.743 157.971L173.239 162.579C171.746 163.56 170.082 164.371 168.247 165.011C166.412 165.651 164.492 165.971 162.487 165.971ZM154.103 146.515H168.055C168.055 144.083 167.522 142.184 166.455 140.819C165.388 139.411 163.788 138.707 161.655 138.707C159.778 138.707 158.135 139.39 156.727 140.755C155.319 142.078 154.444 143.998 154.103 146.515ZM190.253 165.971C188.119 165.971 185.986 165.566 183.853 164.755C181.719 163.902 179.885 162.856 178.349 161.619L181.805 156.883C183.213 157.992 184.599 158.867 185.965 159.507C187.373 160.104 188.887 160.403 190.509 160.403C192.215 160.403 193.474 160.062 194.285 159.379C195.095 158.654 195.501 157.736 195.501 156.627C195.501 155.304 194.797 154.302 193.389 153.619C191.981 152.894 190.445 152.211 188.781 151.571C186.69 150.803 184.685 149.758 182.765 148.435C180.887 147.07 179.949 145.064 179.949 142.419C179.949 139.688 180.973 137.448 183.021 135.699C185.111 133.907 187.906 133.011 191.405 133.011C193.581 133.011 195.543 133.395 197.293 134.163C199.042 134.931 200.557 135.806 201.837 136.787L198.445 141.267C197.335 140.456 196.205 139.816 195.053 139.347C193.943 138.835 192.77 138.579 191.533 138.579C189.954 138.579 188.781 138.92 188.013 139.603C187.287 140.243 186.925 141.054 186.925 142.035C186.925 143.272 187.586 144.211 188.909 144.851C190.231 145.491 191.746 146.11 193.453 146.707C195.586 147.518 197.613 148.584 199.533 149.907C201.495 151.187 202.477 153.299 202.477 156.243C202.477 158.931 201.431 161.235 199.341 163.155C197.25 165.032 194.221 165.971 190.253 165.971ZM231.204 165.971C227.833 165.971 225.38 164.883 223.844 162.707C222.308 160.531 221.54 157.459 221.54 153.491V133.779H228.9V152.531C228.9 155.134 229.284 156.968 230.052 158.035C230.82 159.102 232.057 159.635 233.764 159.635C235.129 159.635 236.324 159.294 237.348 158.611C238.414 157.928 239.545 156.819 240.74 155.283V133.779H248.1V165.203H242.084L241.508 160.595H241.316C239.95 162.216 238.457 163.518 236.836 164.499C235.214 165.48 233.337 165.971 231.204 165.971ZM271.118 159.891C273.209 159.891 274.958 158.974 276.366 157.139C277.774 155.304 278.478 152.616 278.478 149.075C278.478 145.918 277.945 143.464 276.878 141.715C275.811 139.966 274.083 139.091 271.694 139.091C269.475 139.091 267.171 140.264 264.782 142.611V157.267C265.934 158.206 267.043 158.888 268.11 159.315C269.177 159.699 270.179 159.891 271.118 159.891ZM257.422 177.619V133.779H263.502L264.014 137.107H264.27C265.593 135.998 267.065 135.038 268.686 134.227C270.35 133.416 272.035 133.011 273.742 133.011C277.667 133.011 280.697 134.462 282.83 137.363C285.006 140.264 286.094 144.147 286.094 149.011C286.094 154.387 284.729 158.568 281.998 161.555C279.267 164.499 276.153 165.971 272.654 165.971C270.009 165.971 267.321 164.819 264.59 162.515L264.782 167.763V177.619H257.422ZM300.715 165.971C298.112 165.971 296.256 165.182 295.147 163.603C294.08 162.024 293.547 159.87 293.547 157.139V120.019H300.907V157.523C300.907 158.419 301.078 159.059 301.419 159.443C301.76 159.784 302.123 159.955 302.507 159.955C302.891 159.955 303.275 159.912 303.659 159.827L304.619 165.331C303.638 165.758 302.336 165.971 300.715 165.971ZM323.786 165.971C319.861 165.971 316.383 164.542 313.354 161.683C310.367 158.782 308.874 154.728 308.874 149.523C308.874 144.275 310.367 140.222 313.354 137.363C316.383 134.462 319.861 133.011 323.786 133.011C327.711 133.011 331.189 134.462 334.218 137.363C337.247 140.222 338.762 144.275 338.762 149.523C338.762 154.728 337.247 158.782 334.218 161.683C331.189 164.542 327.711 165.971 323.786 165.971ZM323.786 159.955C326.09 159.955 327.903 158.995 329.226 157.075C330.549 155.155 331.21 152.638 331.21 149.523C331.21 146.366 330.549 143.827 329.226 141.907C327.903 139.987 326.09 139.027 323.786 139.027C321.482 139.027 319.669 139.987 318.346 141.907C317.066 143.827 316.426 146.366 316.426 149.523C316.426 152.638 317.066 155.155 318.346 157.075C319.669 158.995 321.482 159.955 323.786 159.955ZM355.281 160.211C356.561 160.211 357.713 159.912 358.737 159.315C359.804 158.718 360.934 157.864 362.129 156.755V149.715C357.862 150.27 354.897 151.102 353.233 152.211C351.569 153.278 350.737 154.6 350.737 156.179C350.737 157.587 351.164 158.611 352.017 159.251C352.87 159.891 353.958 160.211 355.281 160.211ZM352.913 165.971C350.182 165.971 347.942 165.118 346.193 163.411C344.486 161.704 343.633 159.486 343.633 156.755C343.633 153.384 345.084 150.782 347.985 148.947C350.929 147.07 355.644 145.79 362.129 145.107C362.044 143.443 361.596 142.014 360.785 140.819C359.974 139.582 358.502 138.963 356.369 138.963C354.833 138.963 353.318 139.262 351.825 139.859C350.374 140.456 348.945 141.182 347.537 142.035L344.849 137.107C346.556 136.04 348.518 135.102 350.737 134.291C352.956 133.438 355.302 133.011 357.777 133.011C365.585 133.011 369.489 137.534 369.489 146.579V165.203H363.409L362.897 161.747H362.641C361.233 162.942 359.718 163.944 358.097 164.755C356.518 165.566 354.79 165.971 352.913 165.971ZM391.097 159.891C393.444 159.891 395.641 158.718 397.689 156.371V141.715C396.58 140.734 395.492 140.051 394.425 139.667C393.401 139.283 392.356 139.091 391.289 139.091C389.284 139.091 387.556 140.008 386.105 141.843C384.697 143.635 383.993 146.174 383.993 149.459C383.993 156.414 386.361 159.891 391.097 159.891ZM389.305 165.971C385.38 165.971 382.244 164.52 379.897 161.619C377.55 158.718 376.377 154.686 376.377 149.523C376.377 144.403 377.742 140.371 380.473 137.427C383.204 134.483 386.276 133.011 389.689 133.011C391.481 133.011 392.996 133.331 394.233 133.971C395.513 134.568 396.75 135.4 397.945 136.467L397.689 131.411V120.019H405.049V165.203H398.969L398.457 161.811H398.201C397.049 162.963 395.705 163.944 394.169 164.755C392.633 165.566 391.012 165.971 389.305 165.971ZM427.862 165.971C423.51 165.971 419.841 164.52 416.854 161.619C413.867 158.718 412.374 154.686 412.374 149.523C412.374 146.11 413.057 143.166 414.422 140.691C415.83 138.216 417.643 136.318 419.862 134.995C422.081 133.672 424.406 133.011 426.838 133.011C431.105 133.011 434.326 134.398 436.502 137.171C438.721 139.944 439.83 143.528 439.83 147.923C439.83 149.459 439.723 150.654 439.51 151.507H419.542C419.841 154.28 420.822 156.435 422.486 157.971C424.193 159.507 426.305 160.275 428.822 160.275C430.187 160.275 431.446 160.083 432.598 159.699C433.793 159.272 434.966 158.696 436.118 157.971L438.614 162.579C437.121 163.56 435.457 164.371 433.622 165.011C431.787 165.651 429.867 165.971 427.862 165.971ZM419.478 146.515H433.43C433.43 144.083 432.897 142.184 431.83 140.819C430.763 139.411 429.163 138.707 427.03 138.707C425.153 138.707 423.51 139.39 422.102 140.755C420.694 142.078 419.819 143.998 419.478 146.515ZM459.66 159.891C462.006 159.891 464.204 158.718 466.252 156.371V141.715C465.142 140.734 464.054 140.051 462.988 139.667C461.964 139.283 460.918 139.091 459.852 139.091C457.846 139.091 456.118 140.008 454.668 141.843C453.26 143.635 452.556 146.174 452.556 149.459C452.556 156.414 454.924 159.891 459.66 159.891ZM457.868 165.971C453.942 165.971 450.806 164.52 448.46 161.619C446.113 158.718 444.94 154.686 444.94 149.523C444.94 144.403 446.305 140.371 449.036 137.427C451.766 134.483 454.838 133.011 458.252 133.011C460.044 133.011 461.558 133.331 462.796 133.971C464.076 134.568 465.313 135.4 466.508 136.467L466.252 131.411V120.019H473.612V165.203H467.532L467.02 161.811H466.764C465.612 162.963 464.268 163.944 462.732 164.755C461.196 165.566 459.574 165.971 457.868 165.971Z" fill="#B7B7B7"/>
<g clip-path="url(#clip0_864_326)">
<path d="M293.887 42.6175C291.858 40.1163 288.746 38.6783 285.346 38.6783H283.5V31.079C283.5 20.535 274.154 11.9567 262.667 11.9567H241.6C240.958 11.9567 240.308 11.8151 239.737 11.5551L226.592 5.52006C224.867 4.72839 222.933 4.31153 221 4.31153H212.667C203.475 4.3077 196 11.1688 196 19.6056V69.3238C196 79.8679 205.346 88.4462 216.833 88.4462H269.158C278.433 88.4462 286.45 82.9695 289.167 74.6513L295.55 51.2608C296.525 48.2701 295.917 45.1225 293.887 42.6175ZM204.333 69.3238V19.6056C204.333 15.3872 208.071 11.9567 212.667 11.9567H221C221.642 11.9567 222.292 12.0982 222.862 12.3582L236.008 18.3932C237.733 19.1849 239.667 19.6018 241.6 19.6018H262.667C269.558 19.6018 275.167 24.7495 275.167 31.0752V38.6744H231.896C224.812 38.6744 218.487 42.8011 216.108 49.077L206.983 76.3761C205.325 74.4295 204.333 71.9818 204.333 69.3238ZM287.517 49.2338L281.133 72.6205C279.533 77.512 274.721 80.7972 269.158 80.7972H216.833C215.967 80.7972 215.121 80.7169 214.304 80.5601L224.029 51.4597C225.192 48.3886 228.358 46.3272 231.9 46.3272H285.35C286.358 46.3272 286.946 46.8627 287.204 47.1839C287.462 47.5052 287.854 48.1744 287.517 49.2338Z" fill="#B7B7B7"/>
</g>
<defs>
<clipPath id="clip0_864_326">
<rect width="100" height="91.7874" fill="white" transform="translate(196 0.483154)"/>
</clipPath>
</defs>
</svg>
