<svg width="336" height="401" viewBox="0 0 336 401" fill="none" xmlns="http://www.w3.org/2000/svg">
<path d="M144.346 213.462C144.346 197.885 149.539 180 157.615 166.154C167.423 148.846 178.385 141.923 187.039 129.231C201.462 107.885 204.346 77.3079 195.115 54.2309C185.885 30.5771 163.962 16.7309 138.577 17.3079C113.192 17.8848 92.4232 33.4617 84.3463 57.1156C75.1155 83.0771 79.154 114.231 99.9232 133.846C108.577 141.923 116.654 154.616 112.039 166.731C108 178.269 94.154 183.462 84.3463 188.077C61.8463 197.885 34.7309 211.731 30.1155 238.269C25.5001 260.192 40.5001 282.692 64.154 282.692H162.231C166.846 282.692 169.731 276.923 166.846 273.462C152.423 256.731 144.346 235.385 144.346 213.462Z" fill="#B7B7B7"/>
<path d="M285.692 164.423C258.577 137.308 214.731 137.308 187.615 164.423C160.5 191.538 160.5 235.384 187.615 262.5C214.731 289.615 258.577 289.615 285.692 262.5C312.808 235.384 312.808 191.538 285.692 164.423ZM265.5 225.577C267.808 227.884 267.808 231.923 264.923 234.231L256.846 242.308C254.538 244.615 251.654 244.615 249.346 241.731L237.231 229.615L224.538 242.308C222.231 244.615 219.346 244.615 217.038 241.731L208.385 233.654C206.077 231.346 205.5 228.461 207.808 226.154L220.5 213.461L208.385 200.769C206.077 198.461 205.5 195.577 207.808 193.269L215.885 185.192C218.192 182.884 222.231 182.308 224.538 184.615L236.654 196.731L248.769 184.615C251.077 182.308 255.115 181.731 257.423 184.038L265.5 192.115C267.808 194.423 267.808 198.461 264.923 200.769L252.808 212.885L265.5 225.577Z" fill="#B7B7B7"/>
<path d="M6.875 373C5.83333 373 5.3125 372.427 5.3125 371.281V329.906C5.3125 328.76 5.83333 328.188 6.875 328.188H10.875C12.3333 328.188 13.375 328.708 14 329.75L33.5625 362.531H33.6875C33.6458 361.698 33.625 360.865 33.625 360.031V329.906C33.625 328.76 34.1458 328.188 35.1875 328.188H38.0625C39.1042 328.188 39.625 328.76 39.625 329.906V371.281C39.625 372.427 39.1042 373 38.0625 373H35.3125C33.8542 373 32.8125 372.479 32.1875 371.438L11.375 336.656H11.25C11.2917 337.49 11.3125 338.323 11.3125 339.156V371.281C11.3125 372.427 10.7917 373 9.75 373H6.875ZM47.5938 356.594C47.5938 351.698 48.8854 347.656 51.4688 344.469C54.0729 341.26 57.875 339.656 62.875 339.656C67.875 339.656 71.6667 341.26 74.25 344.469C76.8542 347.656 78.1562 351.698 78.1562 356.594C78.1562 361.49 76.8542 365.542 74.25 368.75C71.6667 371.938 67.875 373.531 62.875 373.531C57.875 373.531 54.0729 371.938 51.4688 368.75C48.8854 365.542 47.5938 361.49 47.5938 356.594ZM53.4062 356.594C53.4062 360.969 54.2708 364.208 56 366.312C57.7292 368.417 60.0208 369.469 62.875 369.469C65.7292 369.469 68.0208 368.417 69.75 366.312C71.4792 364.208 72.3438 360.969 72.3438 356.594C72.3438 352.219 71.4792 348.979 69.75 346.875C68.0208 344.771 65.7292 343.719 62.875 343.719C60.0208 343.719 57.7292 344.771 56 346.875C54.2708 348.979 53.4062 352.219 53.4062 356.594ZM104.781 364.25C104.781 360.542 106.51 357.823 109.969 356.094C113.448 354.365 118.635 353.354 125.531 353.062V350.938C125.531 348.979 125.083 347.292 124.188 345.875C123.312 344.438 121.562 343.719 118.938 343.719C117.271 343.719 115.938 343.885 114.938 344.219C113.938 344.531 113.021 344.958 112.188 345.5C111.375 346.021 110.594 346.698 109.844 347.531C109.281 348.156 108.75 348.188 108.25 347.625L106.625 345.75C106.167 345.229 106.323 344.604 107.094 343.875C108.198 342.833 109.271 342.052 110.312 341.531C111.354 341.01 112.646 340.573 114.188 340.219C115.75 339.844 117.333 339.656 118.938 339.656C123.292 339.656 126.396 340.781 128.25 343.031C130.104 345.26 131.031 348.323 131.031 352.219V371.594C131.031 372.531 130.562 373 129.625 373H126.812C126 373 125.594 372.531 125.594 371.594V370.062H125.531C123.885 371.354 122.271 372.26 120.688 372.781C119.125 373.281 117.375 373.531 115.438 373.531C112.021 373.531 109.385 372.719 107.531 371.094C105.698 369.448 104.781 367.167 104.781 364.25ZM110.469 364.375C110.469 365.667 110.74 366.708 111.281 367.5C111.823 368.271 112.573 368.771 113.531 369C114.49 369.208 115.49 369.312 116.531 369.312C118.135 369.312 119.656 369.156 121.094 368.844C122.531 368.531 124.01 367.708 125.531 366.375V357.156C121.323 357.469 118.323 357.854 116.531 358.312C114.74 358.75 113.281 359.521 112.156 360.625C111.031 361.708 110.469 362.958 110.469 364.375ZM141.344 373C140.406 373 139.938 372.531 139.938 371.594V328.281C139.938 327.344 140.406 326.875 141.344 326.875H144.031C144.969 326.875 145.438 327.344 145.438 328.281V342.188C145.438 342.833 145.417 343.469 145.375 344.094H145.438C146.583 342.719 147.875 341.635 149.312 340.844C150.75 340.052 152.667 339.656 155.062 339.656C159.229 339.656 162.396 341.365 164.562 344.781C166.729 348.177 167.812 352.115 167.812 356.594C167.812 361.073 166.729 365.021 164.562 368.438C162.396 371.833 159.229 373.531 155.062 373.531C152.667 373.531 150.75 373.135 149.312 372.344C147.875 371.552 146.583 370.469 145.438 369.094H145.375L145.188 371.594C145.125 372.531 144.719 373 143.969 373H141.344ZM145.438 360.188C145.438 363.312 146.177 365.646 147.656 367.188C149.156 368.708 151.031 369.469 153.281 369.469C156.448 369.469 158.688 368.281 160 365.906C161.333 363.531 162 360.427 162 356.594C162 352.76 161.333 349.656 160 347.281C158.688 344.906 156.448 343.719 153.281 343.719C151.031 343.719 149.156 344.49 147.656 346.031C146.177 347.552 145.438 349.875 145.438 353V360.188ZM173.656 369.938C173.01 369.333 172.875 368.771 173.25 368.25L174.656 366.281C175.115 365.656 175.792 365.688 176.688 366.375C177.917 367.312 179.281 368.062 180.781 368.625C182.302 369.188 184.031 369.469 185.969 369.469C187.115 369.469 188.135 369.333 189.031 369.062C189.927 368.771 190.708 368.24 191.375 367.469C192.062 366.698 192.406 365.667 192.406 364.375C192.406 363.625 192.24 362.917 191.906 362.25C191.594 361.583 191.094 361.052 190.406 360.656C189.74 360.24 189.083 359.917 188.438 359.688C187.375 359.292 186.312 358.969 185.25 358.719C184.208 358.448 182.833 358.042 181.125 357.5C179.979 357.146 178.896 356.646 177.875 356C176.854 355.333 175.958 354.438 175.188 353.312C174.438 352.188 174.062 350.635 174.062 348.656C174.062 346.635 174.677 344.896 175.906 343.438C177.135 341.979 178.677 340.99 180.531 340.469C182.385 339.927 184.188 339.656 185.938 339.656C188.521 339.656 190.594 339.958 192.156 340.562C193.74 341.146 195.104 341.844 196.25 342.656C196.917 343.135 197.01 343.688 196.531 344.312L195.125 346.188C194.688 346.792 194.01 346.771 193.094 346.125C192.323 345.583 191.229 345.073 189.812 344.594C188.396 344.115 187.156 343.875 186.094 343.875C184.781 343.875 183.656 344.021 182.719 344.312C181.781 344.604 181.021 345.104 180.438 345.812C179.854 346.521 179.562 347.354 179.562 348.312C179.562 349.042 179.677 349.698 179.906 350.281C180.135 350.844 180.562 351.365 181.188 351.844C181.812 352.323 182.688 352.708 183.812 353C185.562 353.458 187.156 353.875 188.594 354.25C190.052 354.625 191.365 355.083 192.531 355.625C194.052 356.333 195.219 357.115 196.031 357.969C196.865 358.823 197.438 359.75 197.75 360.75C198.062 361.729 198.219 362.823 198.219 364.031C198.219 366.26 197.552 368.146 196.219 369.688C194.906 371.229 193.438 372.26 191.812 372.781C190.188 373.281 188.229 373.531 185.938 373.531C182.833 373.531 180.167 373.094 177.938 372.219C175.729 371.323 174.302 370.562 173.656 369.938ZM202.656 356.594C202.656 351.427 203.948 347.312 206.531 344.25C209.115 341.188 212.812 339.656 217.625 339.656C221.625 339.656 224.938 341.062 227.562 343.875C230.208 346.667 231.531 351.135 231.531 357.281C231.531 358.219 231.104 358.688 230.25 358.688H208.469C208.823 362.708 209.906 365.51 211.719 367.094C213.531 368.656 215.583 369.438 217.875 369.438C220.292 369.438 222.146 369.031 223.438 368.219C224.729 367.406 225.677 366.604 226.281 365.812C226.948 364.938 227.594 364.771 228.219 365.312L230.062 366.906C230.542 367.323 230.542 367.896 230.062 368.625C229.667 369.229 228.531 370.198 226.656 371.531C224.802 372.865 221.875 373.531 217.875 373.531C212.667 373.531 208.823 372 206.344 368.938C203.885 365.875 202.656 361.76 202.656 356.594ZM208.344 354.625H226C225.917 351.708 225.167 349.156 223.75 346.969C222.333 344.76 220.25 343.656 217.5 343.656C215.083 343.656 213.031 344.469 211.344 346.094C209.656 347.698 208.656 350.542 208.344 354.625ZM240.156 373C239.219 373 238.75 372.531 238.75 371.594V341.594C238.75 340.656 239.219 340.188 240.156 340.188H242.781C243.719 340.188 244.188 340.656 244.188 341.594V344.094H244.312C245.667 342.594 247.125 341.479 248.688 340.75C250.25 340.021 252.198 339.656 254.531 339.656C258.323 339.656 261.042 340.729 262.688 342.875C264.354 345 265.188 347.917 265.188 351.625V371.594C265.188 372.531 264.719 373 263.781 373H261.094C260.156 373 259.688 372.531 259.688 371.594V353.125C259.688 349.042 259.01 346.458 257.656 345.375C256.302 344.271 254.583 343.719 252.5 343.719C249.792 343.719 247.74 344.531 246.344 346.156C244.948 347.76 244.25 350.521 244.25 354.438V371.594C244.25 372.531 243.781 373 242.844 373H240.156ZM272.219 356.594C272.219 351.698 273.427 347.656 275.844 344.469C278.281 341.26 282 339.656 287 339.656C290.375 339.656 292.948 340.26 294.719 341.469C296.51 342.656 297.802 343.875 298.594 345.125C299.031 345.812 298.938 346.365 298.312 346.781L296.344 348.062C295.719 348.5 295.094 348.219 294.469 347.219C293.865 346.26 293.01 345.438 291.906 344.75C290.823 344.062 289.188 343.719 287 343.719C284.146 343.719 281.938 344.771 280.375 346.875C278.812 348.979 278.031 352.219 278.031 356.594C278.031 360.969 278.812 364.208 280.375 366.312C281.938 368.417 284.146 369.469 287 369.469C289.312 369.469 291.083 369.031 292.312 368.156C293.542 367.26 294.438 366.292 295 365.25C295.542 364.271 296.156 363.99 296.844 364.406L298.938 365.656C299.562 366.031 299.656 366.594 299.219 367.344C298.698 368.24 297.51 369.5 295.656 371.125C293.823 372.729 290.938 373.531 287 373.531C282 373.531 278.281 371.938 275.844 368.75C273.427 365.542 272.219 361.49 272.219 356.594ZM304.281 356.594C304.281 351.427 305.573 347.312 308.156 344.25C310.74 341.188 314.438 339.656 319.25 339.656C323.25 339.656 326.562 341.062 329.188 343.875C331.833 346.667 333.156 351.135 333.156 357.281C333.156 358.219 332.729 358.688 331.875 358.688H310.094C310.448 362.708 311.531 365.51 313.344 367.094C315.156 368.656 317.208 369.438 319.5 369.438C321.917 369.438 323.771 369.031 325.062 368.219C326.354 367.406 327.302 366.604 327.906 365.812C328.573 364.938 329.219 364.771 329.844 365.312L331.688 366.906C332.167 367.323 332.167 367.896 331.688 368.625C331.292 369.229 330.156 370.198 328.281 371.531C326.427 372.865 323.5 373.531 319.5 373.531C314.292 373.531 310.448 372 307.969 368.938C305.51 365.875 304.281 361.76 304.281 356.594ZM309.969 354.625H327.625C327.542 351.708 326.792 349.156 325.375 346.969C323.958 344.76 321.875 343.656 319.125 343.656C316.708 343.656 314.656 344.469 312.969 346.094C311.281 347.698 310.281 350.542 309.969 354.625Z" fill="#B7B7B7"/>
</svg>
