<svg width="694" height="358" viewBox="0 0 694 358" fill="none" xmlns="http://www.w3.org/2000/svg">
<path d="M152 34.8333V55.6667C152 63.349 158.207 69.5556 165.889 69.5556H172.833H193.667V34.8333C193.667 23.3316 184.335 14 172.833 14C161.332 14 152 23.3316 152 34.8333ZM200.611 14C204.951 19.816 207.556 27.0208 207.556 34.8333V166.778C207.556 182.099 220.012 194.556 235.333 194.556C250.655 194.556 263.111 182.099 263.111 166.778V164.477C263.111 150.415 274.526 139 288.589 139H360.333V55.6667C360.333 32.6632 341.67 14 318.667 14H200.611ZM353.389 208.444C380.255 208.444 402 186.7 402 159.833C402 156.014 398.875 152.889 395.056 152.889H288.589C282.208 152.889 277 158.054 277 164.477V166.778C277 189.781 258.337 208.444 235.333 208.444H311.722H353.389Z" fill="#B7B7B7" fill-opacity="0.59"/>
<path d="M5.312 336V294.144H12.928L25.984 317.696L30.272 326.592H30.528C30.3573 324.459 30.144 322.133 29.888 319.616C29.6747 317.099 29.568 314.667 29.568 312.32V294.144H36.672V336H29.056L16 312.448L11.712 303.552H11.456C11.6267 305.771 11.8187 308.096 12.032 310.528C12.288 312.96 12.416 315.349 12.416 317.696V336H5.312ZM59.536 336.768C55.6107 336.768 52.1333 335.339 49.104 332.48C46.1173 329.579 44.624 325.525 44.624 320.32C44.624 315.072 46.1173 311.019 49.104 308.16C52.1333 305.259 55.6107 303.808 59.536 303.808C63.4613 303.808 66.9387 305.259 69.968 308.16C72.9973 311.019 74.512 315.072 74.512 320.32C74.512 325.525 72.9973 329.579 69.968 332.48C66.9387 335.339 63.4613 336.768 59.536 336.768ZM59.536 330.752C61.84 330.752 63.6533 329.792 64.976 327.872C66.2987 325.952 66.96 323.435 66.96 320.32C66.96 317.163 66.2987 314.624 64.976 312.704C63.6533 310.784 61.84 309.824 59.536 309.824C57.232 309.824 55.4187 310.784 54.096 312.704C52.816 314.624 52.176 317.163 52.176 320.32C52.176 323.435 52.816 325.952 54.096 327.872C55.4187 329.792 57.232 330.752 59.536 330.752ZM104.594 331.008C105.874 331.008 107.026 330.709 108.05 330.112C109.116 329.515 110.247 328.661 111.442 327.552V320.512C107.175 321.067 104.21 321.899 102.546 323.008C100.882 324.075 100.05 325.397 100.05 326.976C100.05 328.384 100.476 329.408 101.33 330.048C102.183 330.688 103.271 331.008 104.594 331.008ZM102.226 336.768C99.4948 336.768 97.2548 335.915 95.5055 334.208C93.7988 332.501 92.9455 330.283 92.9455 327.552C92.9455 324.181 94.3962 321.579 97.2975 319.744C100.242 317.867 104.956 316.587 111.442 315.904C111.356 314.24 110.908 312.811 110.098 311.616C109.287 310.379 107.815 309.76 105.682 309.76C104.146 309.76 102.631 310.059 101.138 310.656C99.6868 311.253 98.2575 311.979 96.8495 312.832L94.1615 307.904C95.8682 306.837 97.8308 305.899 100.05 305.088C102.268 304.235 104.615 303.808 107.09 303.808C114.898 303.808 118.802 308.331 118.802 317.376V336H112.722L112.21 332.544H111.954C110.546 333.739 109.031 334.741 107.41 335.552C105.831 336.363 104.103 336.768 102.226 336.768ZM127.61 336V304.576H133.69L134.202 308.8H134.458C135.866 307.435 137.402 306.261 139.066 305.28C140.73 304.299 142.628 303.808 144.762 303.808C148.132 303.808 150.586 304.896 152.122 307.072C153.658 309.248 154.426 312.32 154.426 316.288V336H147.066V317.248C147.066 314.645 146.66 312.811 145.85 311.744C145.082 310.677 143.844 310.144 142.138 310.144C140.772 310.144 139.556 310.485 138.49 311.168C137.466 311.808 136.292 312.768 134.97 314.048V336H127.61ZM163.422 336V304.576H169.502L170.014 308.8H170.27C171.678 307.435 173.214 306.261 174.878 305.28C176.542 304.299 178.441 303.808 180.574 303.808C183.945 303.808 186.398 304.896 187.934 307.072C189.47 309.248 190.238 312.32 190.238 316.288V336H182.878V317.248C182.878 314.645 182.473 312.811 181.662 311.744C180.894 310.677 179.657 310.144 177.95 310.144C176.585 310.144 175.369 310.485 174.302 311.168C173.278 311.808 172.105 312.768 170.782 314.048V336H163.422ZM212.099 336.768C208.173 336.768 204.696 335.339 201.667 332.48C198.68 329.579 197.187 325.525 197.187 320.32C197.187 315.072 198.68 311.019 201.667 308.16C204.696 305.259 208.173 303.808 212.099 303.808C216.024 303.808 219.501 305.259 222.531 308.16C225.56 311.019 227.075 315.072 227.075 320.32C227.075 325.525 225.56 329.579 222.531 332.48C219.501 335.339 216.024 336.768 212.099 336.768ZM212.099 330.752C214.403 330.752 216.216 329.792 217.539 327.872C218.861 325.952 219.523 323.435 219.523 320.32C219.523 317.163 218.861 314.624 217.539 312.704C216.216 310.784 214.403 309.824 212.099 309.824C209.795 309.824 207.981 310.784 206.659 312.704C205.379 314.624 204.739 317.163 204.739 320.32C204.739 323.435 205.379 325.952 206.659 327.872C207.981 329.792 209.795 330.752 212.099 330.752ZM243.704 336.768C240.333 336.768 237.88 335.68 236.344 333.504C234.808 331.328 234.04 328.256 234.04 324.288V304.576H241.4V323.328C241.4 325.931 241.784 327.765 242.552 328.832C243.32 329.899 244.557 330.432 246.264 330.432C247.629 330.432 248.824 330.091 249.848 329.408C250.914 328.725 252.045 327.616 253.24 326.08V304.576H260.6V336H254.584L254.008 331.392H253.816C252.45 333.013 250.957 334.315 249.336 335.296C247.714 336.277 245.837 336.768 243.704 336.768ZM269.922 336V304.576H276.002L276.514 308.8H276.77C278.178 307.435 279.714 306.261 281.378 305.28C283.042 304.299 284.941 303.808 287.074 303.808C290.445 303.808 292.898 304.896 294.434 307.072C295.97 309.248 296.738 312.32 296.738 316.288V336H289.378V317.248C289.378 314.645 288.973 312.811 288.162 311.744C287.394 310.677 286.157 310.144 284.45 310.144C283.085 310.144 281.869 310.485 280.802 311.168C279.778 311.808 278.605 312.768 277.282 314.048V336H269.922ZM318.855 336.768C314.588 336.768 310.983 335.339 308.039 332.48C305.137 329.579 303.687 325.525 303.687 320.32C303.687 315.072 305.265 311.019 308.423 308.16C311.58 305.259 315.249 303.808 319.431 303.808C321.436 303.808 323.185 304.149 324.679 304.832C326.172 305.515 327.495 306.347 328.647 307.328L325.063 312.128C323.313 310.592 321.564 309.824 319.815 309.824C317.297 309.824 315.228 310.784 313.607 312.704C312.028 314.624 311.239 317.163 311.239 320.32C311.239 323.435 312.007 325.952 313.543 327.872C315.121 329.792 317.148 330.752 319.623 330.752C320.817 330.752 321.969 330.496 323.079 329.984C324.188 329.429 325.191 328.789 326.087 328.064L329.095 332.928C327.644 334.208 326.023 335.168 324.231 335.808C322.439 336.448 320.647 336.768 318.855 336.768ZM347.175 336.768C342.823 336.768 339.153 335.317 336.167 332.416C333.18 329.515 331.687 325.483 331.687 320.32C331.687 316.907 332.369 313.963 333.735 311.488C335.143 309.013 336.956 307.115 339.175 305.792C341.393 304.469 343.719 303.808 346.151 303.808C350.417 303.808 353.639 305.195 355.815 307.968C358.033 310.741 359.143 314.325 359.143 318.72C359.143 320.256 359.036 321.451 358.823 322.304H338.855C339.153 325.077 340.135 327.232 341.799 328.768C343.505 330.304 345.617 331.072 348.135 331.072C349.5 331.072 350.759 330.88 351.911 330.496C353.105 330.069 354.279 329.493 355.431 328.768L357.927 333.376C356.433 334.357 354.769 335.168 352.935 335.808C351.1 336.448 349.18 336.768 347.175 336.768ZM338.791 317.312H352.743C352.743 314.88 352.209 312.981 351.143 311.616C350.076 310.208 348.476 309.504 346.343 309.504C344.465 309.504 342.823 310.187 341.415 311.552C340.007 312.875 339.132 314.795 338.791 317.312ZM366.172 336V304.576H372.252L372.764 308.864H373.02C374.343 307.456 375.772 306.261 377.308 305.28C378.887 304.299 380.657 303.808 382.62 303.808C384.924 303.808 386.759 304.32 388.124 305.344C389.532 306.325 390.599 307.691 391.324 309.44C392.817 307.861 394.375 306.539 395.996 305.472C397.66 304.363 399.473 303.808 401.436 303.808C404.764 303.808 407.217 304.896 408.796 307.072C410.375 309.248 411.164 312.32 411.164 316.288V336H403.74V317.248C403.74 314.645 403.335 312.811 402.524 311.744C401.756 310.677 400.561 310.144 398.94 310.144C396.977 310.144 394.78 311.445 392.348 314.048V336H384.988V317.248C384.988 314.645 384.583 312.811 383.772 311.744C383.004 310.677 381.788 310.144 380.124 310.144C378.161 310.144 375.964 311.445 373.532 314.048V336H366.172ZM433.55 336.768C429.198 336.768 425.528 335.317 422.542 332.416C419.555 329.515 418.062 325.483 418.062 320.32C418.062 316.907 418.744 313.963 420.11 311.488C421.518 309.013 423.331 307.115 425.55 305.792C427.768 304.469 430.094 303.808 432.526 303.808C436.792 303.808 440.014 305.195 442.19 307.968C444.408 310.741 445.518 314.325 445.518 318.72C445.518 320.256 445.411 321.451 445.198 322.304H425.23C425.528 325.077 426.51 327.232 428.174 328.768C429.88 330.304 431.992 331.072 434.51 331.072C435.875 331.072 437.134 330.88 438.286 330.496C439.48 330.069 440.654 329.493 441.806 328.768L444.302 333.376C442.808 334.357 441.144 335.168 439.31 335.808C437.475 336.448 435.555 336.768 433.55 336.768ZM425.166 317.312H439.118C439.118 314.88 438.584 312.981 437.518 311.616C436.451 310.208 434.851 309.504 432.718 309.504C430.84 309.504 429.198 310.187 427.79 311.552C426.382 312.875 425.507 314.795 425.166 317.312ZM452.547 336V304.576H458.627L459.139 308.8H459.395C460.803 307.435 462.339 306.261 464.003 305.28C465.667 304.299 467.566 303.808 469.699 303.808C473.07 303.808 475.523 304.896 477.059 307.072C478.595 309.248 479.363 312.32 479.363 316.288V336H472.003V317.248C472.003 314.645 471.598 312.811 470.787 311.744C470.019 310.677 468.782 310.144 467.075 310.144C465.71 310.144 464.494 310.485 463.427 311.168C462.403 311.808 461.23 312.768 459.907 314.048V336H452.547ZM499.432 336.768C495.762 336.768 493.181 335.723 491.688 333.632C490.194 331.541 489.448 328.789 489.448 325.376V310.4H484.968V304.896L489.832 304.576L490.728 296H496.872V304.576H504.872V310.4H496.872V325.376C496.872 329.045 498.344 330.88 501.288 330.88C502.354 330.88 503.442 330.645 504.552 330.176L505.832 335.616C504.978 335.915 503.997 336.171 502.888 336.384C501.821 336.64 500.669 336.768 499.432 336.768ZM534.281 331.008C535.561 331.008 536.713 330.709 537.737 330.112C538.804 329.515 539.934 328.661 541.129 327.552V320.512C536.862 321.067 533.897 321.899 532.233 323.008C530.569 324.075 529.737 325.397 529.737 326.976C529.737 328.384 530.164 329.408 531.017 330.048C531.87 330.688 532.958 331.008 534.281 331.008ZM531.913 336.768C529.182 336.768 526.942 335.915 525.193 334.208C523.486 332.501 522.633 330.283 522.633 327.552C522.633 324.181 524.084 321.579 526.985 319.744C529.929 317.867 534.644 316.587 541.129 315.904C541.044 314.24 540.596 312.811 539.785 311.616C538.974 310.379 537.502 309.76 535.369 309.76C533.833 309.76 532.318 310.059 530.825 310.656C529.374 311.253 527.945 311.979 526.537 312.832L523.849 307.904C525.556 306.837 527.518 305.899 529.737 305.088C531.956 304.235 534.302 303.808 536.777 303.808C544.585 303.808 548.489 308.331 548.489 317.376V336H542.409L541.897 332.544H541.641C540.233 333.739 538.718 334.741 537.097 335.552C535.518 336.363 533.79 336.768 531.913 336.768ZM570.097 330.688C572.444 330.688 574.641 329.515 576.689 327.168V312.512C575.58 311.531 574.492 310.848 573.425 310.464C572.401 310.08 571.356 309.888 570.289 309.888C568.284 309.888 566.556 310.805 565.105 312.64C563.697 314.432 562.993 316.971 562.993 320.256C562.993 327.211 565.361 330.688 570.097 330.688ZM568.305 336.768C564.38 336.768 561.244 335.317 558.897 332.416C556.55 329.515 555.377 325.483 555.377 320.32C555.377 315.2 556.742 311.168 559.473 308.224C562.204 305.28 565.276 303.808 568.689 303.808C570.481 303.808 571.996 304.128 573.233 304.768C574.513 305.365 575.75 306.197 576.945 307.264L576.689 302.208V290.816H584.049V336H577.969L577.457 332.608H577.201C576.049 333.76 574.705 334.741 573.169 335.552C571.633 336.363 570.012 336.768 568.305 336.768ZM606.222 330.688C608.569 330.688 610.766 329.515 612.814 327.168V312.512C611.705 311.531 610.617 310.848 609.55 310.464C608.526 310.08 607.481 309.888 606.414 309.888C604.409 309.888 602.681 310.805 601.23 312.64C599.822 314.432 599.118 316.971 599.118 320.256C599.118 327.211 601.486 330.688 606.222 330.688ZM604.43 336.768C600.505 336.768 597.369 335.317 595.022 332.416C592.675 329.515 591.502 325.483 591.502 320.32C591.502 315.2 592.867 311.168 595.598 308.224C598.329 305.28 601.401 303.808 604.814 303.808C606.606 303.808 608.121 304.128 609.358 304.768C610.638 305.365 611.875 306.197 613.07 307.264L612.814 302.208V290.816H620.174V336H614.094L613.582 332.608H613.326C612.174 333.76 610.83 334.741 609.294 335.552C607.758 336.363 606.137 336.768 604.43 336.768ZM642.987 336.768C638.635 336.768 634.966 335.317 631.979 332.416C628.992 329.515 627.499 325.483 627.499 320.32C627.499 316.907 628.182 313.963 629.547 311.488C630.955 309.013 632.768 307.115 634.987 305.792C637.206 304.469 639.531 303.808 641.963 303.808C646.23 303.808 649.451 305.195 651.627 307.968C653.846 310.741 654.955 314.325 654.955 318.72C654.955 320.256 654.848 321.451 654.635 322.304H634.667C634.966 325.077 635.947 327.232 637.611 328.768C639.318 330.304 641.43 331.072 643.947 331.072C645.312 331.072 646.571 330.88 647.723 330.496C648.918 330.069 650.091 329.493 651.243 328.768L653.739 333.376C652.246 334.357 650.582 335.168 648.747 335.808C646.912 336.448 644.992 336.768 642.987 336.768ZM634.603 317.312H648.555C648.555 314.88 648.022 312.981 646.955 311.616C645.888 310.208 644.288 309.504 642.155 309.504C640.278 309.504 638.635 310.187 637.227 311.552C635.819 312.875 634.944 314.795 634.603 317.312ZM674.785 330.688C677.131 330.688 679.329 329.515 681.377 327.168V312.512C680.267 311.531 679.179 310.848 678.113 310.464C677.089 310.08 676.043 309.888 674.977 309.888C672.971 309.888 671.243 310.805 669.793 312.64C668.385 314.432 667.681 316.971 667.681 320.256C667.681 327.211 670.049 330.688 674.785 330.688ZM672.993 336.768C669.067 336.768 665.931 335.317 663.585 332.416C661.238 329.515 660.065 325.483 660.065 320.32C660.065 315.2 661.43 311.168 664.161 308.224C666.891 305.28 669.963 303.808 673.377 303.808C675.169 303.808 676.683 304.128 677.921 304.768C679.201 305.365 680.438 306.197 681.633 307.264L681.377 302.208V290.816H688.737V336H682.657L682.145 332.608H681.889C680.737 333.76 679.393 334.741 677.857 335.552C676.321 336.363 674.699 336.768 672.993 336.768Z" fill="#B7B7B7"/>
</svg>
