<svg width="221" height="197" viewBox="0 0 221 197" fill="none" xmlns="http://www.w3.org/2000/svg">
<g clip-path="url(#clip0_113_159)">
<path d="M140.167 0H81.8333C70.3333 0 61 9.33333 61 20.8333V79.1667C61 90.6667 70.3333 100 81.8333 100H129.083C134.667 100 139.875 97.8333 143.833 93.9167L154.917 82.8333C158.833 78.9167 161 73.6667 161 68.0833V20.8333C161 9.33333 151.667 0 140.167 0ZM81.8333 91.6667C74.9583 91.6667 69.3333 86.0417 69.3333 79.1667V20.8333C69.3333 13.9583 74.9583 8.33333 81.8333 8.33333H140.167C147.042 8.33333 152.667 13.9583 152.667 20.8333V62.5H136C129.125 62.5 123.5 68.125 123.5 75V91.6667H81.8333ZM137.917 88C136.25 89.6667 134.125 90.8333 131.833 91.3333V74.9583C131.833 72.6667 133.708 70.7917 136 70.7917H152.375C151.875 73.0833 150.708 75.2083 149.042 76.875L137.958 87.9583L137.917 88Z" fill="#B7B7B7"/>
</g>
<path d="M5.312 175V133.144H12.928L25.984 156.696L30.272 165.592H30.528C30.3573 163.459 30.144 161.133 29.888 158.616C29.6747 156.099 29.568 153.667 29.568 151.32V133.144H36.672V175H29.056L16 151.448L11.712 142.552H11.456C11.6267 144.771 11.8187 147.096 12.032 149.528C12.288 151.96 12.416 154.349 12.416 156.696V175H5.312ZM59.536 175.768C55.6107 175.768 52.1333 174.339 49.104 171.48C46.1173 168.579 44.624 164.525 44.624 159.32C44.624 154.072 46.1173 150.019 49.104 147.16C52.1333 144.259 55.6107 142.808 59.536 142.808C63.4613 142.808 66.9387 144.259 69.968 147.16C72.9973 150.019 74.512 154.072 74.512 159.32C74.512 164.525 72.9973 168.579 69.968 171.48C66.9387 174.339 63.4613 175.768 59.536 175.768ZM59.536 169.752C61.84 169.752 63.6533 168.792 64.976 166.872C66.2987 164.952 66.96 162.435 66.96 159.32C66.96 156.163 66.2987 153.624 64.976 151.704C63.6533 149.784 61.84 148.824 59.536 148.824C57.232 148.824 55.4187 149.784 54.096 151.704C52.816 153.624 52.176 156.163 52.176 159.32C52.176 162.435 52.816 164.952 54.096 166.872C55.4187 168.792 57.232 169.752 59.536 169.752ZM91.4315 175.768C87.7622 175.768 85.1808 174.723 83.6875 172.632C82.1942 170.541 81.4475 167.789 81.4475 164.376V149.4H76.9675V143.896L81.8315 143.576L82.7275 135H88.8715V143.576H96.8715V149.4H88.8715V164.376C88.8715 168.045 90.3435 169.88 93.2875 169.88C94.3542 169.88 95.4422 169.645 96.5515 169.176L97.8315 174.616C96.9782 174.915 95.9968 175.171 94.8875 175.384C93.8208 175.64 92.6688 175.768 91.4315 175.768ZM103.485 175V129.816H110.845V141.464L110.589 147.544C111.911 146.307 113.383 145.219 115.005 144.28C116.626 143.299 118.503 142.808 120.637 142.808C124.007 142.808 126.461 143.896 127.997 146.072C129.533 148.248 130.301 151.32 130.301 155.288V175H122.941V156.248C122.941 153.645 122.535 151.811 121.725 150.744C120.957 149.677 119.719 149.144 118.013 149.144C116.647 149.144 115.431 149.485 114.365 150.168C113.341 150.808 112.167 151.768 110.845 153.048V175H103.485ZM142.884 138.072C141.561 138.072 140.473 137.688 139.62 136.92C138.767 136.109 138.34 135.107 138.34 133.912C138.34 132.675 138.767 131.672 139.62 130.904C140.473 130.093 141.561 129.688 142.884 129.688C144.207 129.688 145.295 130.093 146.148 130.904C147.001 131.672 147.428 132.675 147.428 133.912C147.428 135.107 147.001 136.109 146.148 136.92C145.295 137.688 144.207 138.072 142.884 138.072ZM139.172 175V143.576H146.532V175H139.172ZM155.922 175V143.576H162.002L162.514 147.8H162.77C164.178 146.435 165.714 145.261 167.378 144.28C169.042 143.299 170.941 142.808 173.074 142.808C176.445 142.808 178.898 143.896 180.434 146.072C181.97 148.248 182.738 151.32 182.738 155.288V175H175.378V156.248C175.378 153.645 174.973 151.811 174.162 150.744C173.394 149.677 172.157 149.144 170.45 149.144C169.085 149.144 167.869 149.485 166.802 150.168C165.778 150.808 164.605 151.768 163.282 153.048V175H155.922ZM203.062 160.408C204.556 160.408 205.836 159.853 206.903 158.744C207.969 157.635 208.503 156.077 208.503 154.072C208.503 152.109 207.969 150.595 206.903 149.528C205.879 148.419 204.599 147.864 203.062 147.864C201.527 147.864 200.225 148.397 199.159 149.464C198.092 150.531 197.559 152.067 197.559 154.072C197.559 156.077 198.092 157.635 199.159 158.744C200.225 159.853 201.527 160.408 203.062 160.408ZM202.679 188.888C198.924 188.888 195.809 188.205 193.335 186.84C190.86 185.517 189.623 183.469 189.623 180.696C189.623 178.093 191.116 175.853 194.103 173.976V173.72C193.292 173.208 192.609 172.525 192.055 171.672C191.543 170.819 191.286 169.752 191.286 168.472C191.286 167.277 191.628 166.168 192.311 165.144C193.036 164.12 193.847 163.288 194.743 162.648V162.392C193.676 161.581 192.716 160.451 191.863 159C191.052 157.549 190.647 155.907 190.647 154.072C190.647 150.445 191.884 147.672 194.359 145.752C196.876 143.789 199.777 142.808 203.062 142.808C204.684 142.808 206.22 143.064 207.671 143.576H218.935V149.016H213.175C214.369 150.424 214.967 152.195 214.967 154.328C214.967 157.827 213.815 160.493 211.511 162.328C209.207 164.12 206.391 165.016 203.062 165.016C201.569 165.016 200.14 164.739 198.775 164.184C198.305 164.611 197.921 165.059 197.623 165.528C197.367 165.955 197.239 166.509 197.239 167.192C197.239 168.088 197.601 168.792 198.327 169.304C199.095 169.816 200.439 170.072 202.359 170.072H207.927C215.607 170.072 219.447 172.653 219.447 177.816C219.447 180.931 217.932 183.555 214.903 185.688C211.873 187.821 207.799 188.888 202.679 188.888ZM203.831 184.088C206.348 184.088 208.396 183.576 209.975 182.552C211.553 181.528 212.343 180.355 212.343 179.032C212.343 177.795 211.852 176.963 210.871 176.536C209.932 176.109 208.567 175.896 206.775 175.896H202.487C200.78 175.896 199.351 175.747 198.199 175.448C196.577 176.685 195.767 178.072 195.767 179.608C195.767 181.016 196.492 182.104 197.943 182.872C199.393 183.683 201.356 184.088 203.831 184.088Z" fill="#B7B7B7"/>
<defs>
<clipPath id="clip0_113_159">
<rect width="100" height="100" fill="white" transform="translate(61)"/>
</clipPath>
</defs>
</svg>
