<svg width="40" height="40" viewBox="0 0 40 40" fill="none" xmlns="http://www.w3.org/2000/svg">
<g clip-path="url(#clip0_135_391)">
<path d="M21.6667 -0.00683594H8.33333C3.73833 -0.00683594 0 3.7315 0 8.3265V29.7498C0 31.0715 0.725 32.2815 1.89 32.9065C2.42 33.1915 3.00167 33.3315 3.58167 33.3315C4.275 33.3315 4.96667 33.1298 5.56667 32.7315L12.1717 28.3265H21.6667C26.2617 28.3265 30 24.5882 30 19.9932V8.3265C30 3.7315 26.2617 -0.00683594 21.6667 -0.00683594ZM40 14.9932V36.4165C40 37.7382 39.275 38.9482 38.11 39.5732C37.58 39.8582 36.9983 39.9982 36.4183 39.9998C35.725 39.9998 35.0333 39.7982 34.435 39.3998L27.8283 34.9932H18.3333C15.9167 34.9932 13.755 33.9415 12.2317 32.2932L13.18 31.6598H21.6667C28.0983 31.6598 33.3333 26.4248 33.3333 19.9932V8.3265C33.3333 7.81316 33.2883 7.31316 33.225 6.8165C37.0767 7.54983 40 10.9315 40 14.9932Z" fill="#2B2B2B"/>
</g>
<defs>
<clipPath id="clip0_135_391">
<rect width="40" height="40" fill="white"/>
</clipPath>
</defs>
</svg>
